Coordinates
version=1
nRows=23
nColumns=28
inDegrees=yes

Units are S.I. units (second, meters, Newtons, ...)
Angles are in degrees.

endheader
time	pelvis_tilt	pelvis_list	pelvis_rotation	pelvis_tx	pelvis_ty	pelvis_tz	hip_flexion_r	hip_adduction_r	hip_rotation_r	knee_angle_r	ankle_angle_r	subtalar_angle_r	mtp_angle_r	hip_flexion_l	hip_adduction_l	hip_rotation_l	knee_angle_l	socket_flexion	socket_adduction	socket_rotation	socket_tx	socket_ty	socket_tz	foot_flex	lumbar_extension	lumbar_bending	lumbar_rotation
      0.97916667	      6.13784405	      2.08044525	     -3.01898247	      0.40222465	      1.02663179	      0.27862803	      1.33803288	      3.09021320	      2.63955501	    -20.07256858	     10.71659098	     -9.19006269	     28.94250874	     12.07741228	      1.08247606	     -3.08713485	    -76.89117174	    -11.14471738	      0.00000000	      0.00000000	      0.00000000	      0.05777032	      0.00000000	      4.27904851	    -14.70674550	     -2.03049727	      9.54090537
      0.98333333	      6.11563182	      2.16138823	     -3.32324967	      0.40694630	      1.02727332	      0.27917346	      0.90549723	      2.93403964	      2.69768887	    -19.71591124	     10.67326806	     -8.80813198	     29.04979338	     12.60371275	      1.16403593	     -3.06630662	    -76.55615706	    -11.14652181	      0.00000000	      0.00000000	      0.00000000	      0.05750311	      0.00000000	      4.29758521	    -14.67845068	     -2.20629163	      9.78614851
      0.98750000	      6.20400760	      2.26576074	     -3.82017619	      0.41168081	      1.02791948	      0.27982932	      0.51828790	      2.67230176	      2.56424738	    -19.64949738	     10.81329384	     -7.61150072	     29.75011208	     12.86546507	      1.26983867	     -3.20482573	    -76.00453793	    -11.14035640	      0.00000000	      0.00000000	      0.00000000	      0.05655276	      0.00000000	      4.27645609	    -14.75460125	     -2.46572015	     10.54804671
      0.99166667	      6.20865305	      2.33131937	     -4.08621004	      0.41629889	      1.02852865	      0.28027190	      0.08390792	      2.51534256	      2.54145914	    -19.33155568	     10.78785522	     -7.22326913	     29.85013730	     13.34253796	      1.36747773	     -3.10096325	    -75.58873072	    -11.14145366	      0.00000000	      0.00000000	      0.00000000	      0.05618417	      0.00000000	      4.31126781	    -14.76407904	     -2.60238553	     10.64403014
      0.99583333	      6.23436945	      2.41522439	     -4.39221434	      0.42092128	      1.02915680	      0.28081948	     -0.36771431	      2.34607671	      2.59377293	    -19.02079203	     10.78399646	     -6.85512310	     29.89557819	     13.74441139	      1.47837643	     -3.03015318	    -75.06415089	    -11.13502642	      0.00000000	      0.00000000	      0.00000000	      0.05556130	      0.00000000	      4.24327830	    -14.79728255	     -2.78068767	     10.79794638
      1.00000000	      6.16810553	      2.46861624	     -4.63822412	      0.42567058	      1.02952892	      0.28108606	     -0.63371745	      2.13511074	      2.21178345	    -18.85793644	     10.67191853	     -5.94622757	     31.39175377	     14.23198424	      1.59192828	     -2.86639766	    -74.53491825	    -11.13629603	      0.00000000	      0.00000000	      0.00000000	      0.05486751	      0.00000000	      4.28158850	    -14.71439851	     -2.88424879	     11.02995101
      1.00416667	      6.18408770	      2.48901357	     -4.95052356	      0.43024814	      1.03007563	      0.28163867	     -1.07402460	      2.03400071	      2.28209261	    -18.54280856	     10.63106567	     -5.66365077	     31.38183523	     14.62295103	      1.63641408	     -2.76424671	    -73.96404519	    -11.13209846	      0.00000000	      0.00000000	      0.00000000	      0.05423178	      0.00000000	      4.29854844	    -14.74521969	     -2.99769080	     11.23964248
      1.00833333	      6.18151682	      2.52969936	     -5.25618190	      0.43483168	      1.03057818	      0.28215263	     -1.48544264	      1.90780541	      2.35449053	    -18.24372710	     10.60725315	     -5.36746502	     31.36211711	     14.99016673	      1.72304497	     -2.62022423	    -73.29746199	    -11.12321072	      0.00000000	      0.00000000	      0.00000000	      0.05338309	      0.00000000	      4.23435641	    -14.75179601	     -3.11859312	     11.41113294
      1.01250000	      6.14285833	      2.49051919	     -5.51854584	      0.43937169	      1.03097563	      0.28259496	     -1.85755376	      1.86712189	      2.36740775	    -17.94827419	     10.55617526	     -5.02996603	     31.38701357	     15.42287475	      1.72337695	     -2.42430613	    -72.68239275	    -11.11942843	      0.00000000	      0.00000000	      0.00000000	      0.05266617	      0.00000000	      4.27291310	    -14.73253378	     -3.14418050	     11.63164018
      1.01666667	      6.09473525	      2.50088907	     -5.84857993	      0.44403639	      1.03133368	      0.28317398	     -2.16399783	      1.76456056	      2.32005385	    -17.76672837	     10.55601309	     -4.84519558	     31.33844755	     15.75798174	      1.76568244	     -2.28402947	    -71.88045646	    -11.10101745	      0.00000000	      0.00000000	      0.00000000	      0.05147779	      0.00000000	      4.20322113	    -14.67214578	     -3.22125325	     11.70916472
      1.02083333	      6.05871869	      2.47111296	     -6.06004275	      0.44839344	      1.03171338	      0.28351460	     -2.56245613	      1.72738034	      2.46143604	    -17.41777955	     10.49382741	     -4.42526536	     31.37104588	     16.21209257	      1.80854474	     -1.98843004	    -71.24731938	    -11.10137156	      0.00000000	      0.00000000	      0.00000000	      0.05095203	      0.00000000	      4.19780293	    -14.68983529	     -3.25887064	     11.95804676
      1.02500000	      6.00207864	      2.44111534	     -6.38059495	      0.45305444	      1.03201251	      0.28409656	     -2.86595822	      1.66175519	      2.39631386	    -17.22067054	     10.47745529	     -4.19605008	     31.34385884	     16.53422634	      1.79904310	     -1.81736593	    -70.39120360	    -11.07405623	      0.00000000	      0.00000000	      0.00000000	      0.04977946	      0.00000000	      4.14379324	    -14.63442542	     -3.30927061	     12.07435324
      1.02916667	      5.98550292	      2.30024845	     -6.61294687	      0.45753059	      1.03233273	      0.28433371	     -3.28686709	      1.70874302	      2.43835354	    -16.88084036	     10.33533175	     -3.59907815	     31.54222197	     16.84372331	      1.74181948	     -1.48340986	    -69.59632699	    -11.06930545	      0.00000000	      0.00000000	      0.00000000	      0.04871050	      0.00000000	      4.19394968	    -14.65972484	     -3.20458987	     12.49055243
      1.03333333	      5.93320569	      2.30977504	     -6.92472726	      0.46213298	      1.03260039	      0.28485924	     -3.57544296	      1.60181169	      2.44158387	    -16.72328375	     10.34584100	     -3.37754905	     31.52906030	     17.11362666	      1.80426924	     -1.24163555	    -68.60938243	    -11.03162607	      0.00000000	      0.00000000	      0.00000000	      0.04744414	      0.00000000	      4.07909502	    -14.60185946	     -3.28937072	     12.56735894
      1.03750000	      5.84496180	      2.15594211	     -7.11813571	      0.46665442	      1.03278352	      0.28516502	     -3.93342139	      1.68983870	      2.46603181	    -16.36365145	     10.20328641	     -2.97754231	     31.75737117	     17.47059623	      1.71778354	     -0.85259315	    -67.74468886	    -11.01190390	      0.00000000	      0.00000000	      0.00000000	      0.04630964	      0.00000000	      4.07174614	    -14.55346568	     -3.16320758	     12.81895594
      1.04166667	      5.79670219	      2.06248204	     -7.36021377	      0.47107941	      1.03295060	      0.28549754	     -4.24560666	      1.69296938	      2.49128748	    -16.16953933	     10.09793280	     -2.67904540	     31.98821849	     17.75023508	      1.69807565	     -0.50079165	    -66.78634106	    -10.97723020	      0.00000000	      0.00000000	      0.00000000	      0.04506032	      0.00000000	      4.03155402	    -14.54473999	     -3.11681626	     12.99115468
      1.04583333	      5.80123570	      1.96564986	     -7.61727570	      0.47549129	      1.03316787	      0.28583882	     -4.61249702	      1.68801285	      2.52502354	    -15.97788580	      9.94625588	     -2.28561478	     32.37229706	     17.93905362	      1.67413685	     -0.15763134	    -65.75130257	    -10.91666219	      0.00000000	      0.00000000	      0.00000000	      0.04372818	      0.00000000	      3.99234371	    -14.60378015	     -3.06753430	     13.22037481
      1.05000000	      5.85996694	      1.86805994	     -7.83623275	      0.48002489	      1.03343763	      0.28619975	     -5.04982177	      1.66253598	      2.37910034	    -15.75204159	      9.71792967	     -1.89589166	     33.66028631	     17.98941203	      1.65608528	      0.22685683	    -64.56408749	    -10.82285202	      0.00000000	      0.00000000	      0.00000000	      0.04205087	      0.00000000	      3.89308094	    -14.72529367	     -3.05191468	     13.38062965
      1.05416667	      5.73511264	      1.74320423	     -8.00101422	      0.48412561	      1.03338413	      0.28642313	     -5.22525664	      1.73651992	      2.45265778	    -15.66709037	      9.69338640	     -1.80199068	     33.69489685	     18.39401217	      1.61406021	      0.71857189	    -63.62273903	    -10.77676098	      0.00000000	      0.00000000	      0.00000000	      0.04106004	      0.00000000	      3.88265306	    -14.69862134	     -2.94954680	     13.43359468
      1.05833333	      5.52438048	      1.57665433	     -8.17512242	      0.48886524	      1.03327707	      0.28680066	     -5.45691052	      1.85796978	      2.46226750	    -15.34104379	      9.58334733	     -1.61769933	     33.74550491	     18.64464121	      1.47134380	      1.15026730	    -62.26144514	    -10.58094492	      0.00000000	      0.00000000	      0.00000000	      0.03896183	      0.00000000	      3.77690335	    -14.47784563	     -2.78381034	     13.54125216
      1.06250000	      5.40935221	      1.43616890	     -8.33664172	      0.49288840	      1.03319838	      0.28698670	     -5.63634818	      1.95333631	      2.59104282	    -15.27011913	      9.51307296	     -1.48357351	     33.78195442	     18.97925536	      1.41648216	      1.68903027	    -61.18899302	    -10.49446040	      0.00000000	      0.00000000	      0.00000000	      0.03779025	      0.00000000	      3.71896838	    -14.46840092	     -2.66695712	     13.62724955
      1.06666667	      5.40790505	      1.35112335	     -8.68103262	      0.49771719	      1.03342502	      0.28777463	     -6.09801056	      1.94201029	      2.74670389	    -14.89580518	      9.26089438	     -1.25731535	     33.93949040	     18.77592414	      1.30524507	      1.95502713	    -59.28971643	    -10.01954151	      0.00000000	      0.00000000	      0.00000000	      0.03494127	      0.00000000	      3.63356084	    -14.46150460	     -2.69282578	     13.89511980
      1.07083333	      5.29328542	      1.13360833	     -8.80810575	      0.50218532	      1.03332693	      0.28797337	     -6.39589280	      2.11280508	      2.79653235	    -14.65895628	      9.24533363	     -1.13472712	     34.01600309	     19.02458237	      1.15131548	      2.51361898	    -58.08208617	     -9.85043886	      0.00000000	      0.00000000	      0.00000000	      0.03363976	      0.00000000	      3.60816896	    -14.40323682	     -2.46916459	     14.02653081
